<?xml version="1.0" encoding="UTF-8" standalone="no"?>
<svg
   width="250"
   height="100"
   viewBox="0 0 250 100"
   version="1.1"
   id="svg21"
   xml:space="preserve"
   xmlns="http://www.w3.org/2000/svg"
   xmlns:svg="http://www.w3.org/2000/svg"><defs
     id="defs21"><clipPath
       clipPathUnits="userSpaceOnUse"
       id="clipPath8"><g
         id="use8" /></clipPath></defs><g
     font-family="Arial"
     font-size="30px"
     font-weight="bold"
     text-anchor="middle"
     dominant-baseline="middle"
     id="g21"
     transform="matrix(0.7442502,0,0,0.95058257,52.728468,-60.846323)"><!-- Diagonal word "SÕNA" with outline --><!-- Random letters --><rect
       style="font-variation-settings:'wght' 700;opacity:1;fill:#7ce362;fill-opacity:1;stroke-width:1.1252"
       id="rect21"
       width="272.6319"
       height="40.821419"
       x="-35.236214"
       y="88.178047"
       ry="20.410709"
       transform="matrix(0.99999994,3.5863685e-4,-0.00313839,0.99999508,0,0)"
       rx="23.272881" /><path
       style="font-variation-settings:'wght' 900;opacity:1;fill:#7ce362;fill-opacity:0;stroke:#145c0b;stroke-width:4.20098;stroke-linecap:round;stroke-dasharray:none;stroke-opacity:1"
       id="rect10"
       width="194.13193"
       height="29.866449"
       x="38.18182"
       y="146.23376"
       d="m 218.17796,129.57305 -235.745551,-0.15657 c -10.086613,-0.007 -18.212284,-8.11383 -18.218996,-18.17742 l -0.004,-5.44444 c -0.007,-10.063594 8.108145,-18.15991 18.194766,-18.153214 l 235.745541,0.156575 c 10.08661,0.0067 18.21229,8.113812 18.21901,18.177409 l 0.004,5.44444 c 0.007,10.06358 -8.10815,18.15993 -18.19477,18.15322 z"
       ry="12.987013" /></g><!-- Grid background --><!-- Grid lines --><g
     id="layer1"
     transform="translate(19.741068,-58.107228)"><path
       d="M 175.07575,110.63508 V 90.101769 h 10.11998 q 3.432,0 6.04266,1.261332 2.61067,1.231998 4.07733,3.519996 1.46667,2.287997 1.46667,5.485323 0,3.168 -1.46667,5.48533 -1.46666,2.288 -4.07733,3.54933 -2.61066,1.232 -6.04266,1.232 z m 6.92265,-5.39733 h 2.904 q 1.46667,0 2.552,-0.55733 1.11466,-0.55733 1.73066,-1.64267 0.616,-1.11466 0.616,-2.66933 0,-1.583995 -0.616,-2.669327 -0.616,-1.085332 -1.73066,-1.642664 -1.08533,-0.557333 -2.552,-0.557333 h -2.904 z"
       id="text4"
       style="font-size:29.3333px;font-family:Montserrat;-inkscape-font-specification:'Montserrat, @wght=900';font-variation-settings:'wght' 900;stroke:#145c0b;stroke-linecap:round;stroke-opacity:0"
       aria-label="D" /><path
       d="m 21.655917,111.40629 -6.57066,-20.533312 h 7.127992 l 5.309328,17.335982 h -3.578663 l 5.631993,-17.335982 h 6.365327 l 5.25066,17.335982 h -3.431996 l 5.543994,-17.335982 h 6.570659 L 43.303892,111.40629 H 35.882567 L 31.599905,97.208971 h 1.994665 l -4.517329,14.197319 z"
       id="text1"
       style="font-size:29.3333px;font-family:Montserrat;-inkscape-font-specification:'Montserrat, @wght=900';font-variation-settings:'wght' 900;stroke:#145c0b;stroke-linecap:round;stroke-opacity:0"
       aria-label="W" /><path
       d="m 83.613138,111.53286 q -2.49333,0 -4.634661,-0.792 -2.111997,-0.792 -3.666662,-2.22933 -1.554665,-1.46666 -2.434664,-3.43199 -0.850666,-1.96533 -0.850666,-4.28266 0,-2.346669 0.850666,-4.282667 0.879999,-1.965331 2.434664,-3.402662 1.554665,-1.466665 3.666662,-2.258664 2.141331,-0.792 4.634661,-0.792 2.522664,0 4.634662,0.792 2.111997,0.791999 3.666662,2.258664 1.554665,1.437331 2.405331,3.402662 0.879999,1.935998 0.879999,4.282667 0,2.31733 -0.879999,4.28266 -0.850666,1.96533 -2.405331,3.43199 -1.554665,1.43733 -3.666662,2.22933 -2.111998,0.792 -4.634662,0.792 z m 0,-5.60266 q 0.967999,0 1.789332,-0.352 0.850665,-0.352 1.466665,-0.99733 0.645332,-0.67467 0.997332,-1.61333 0.351999,-0.968 0.351999,-2.17066 0,-1.20267 -0.351999,-2.141336 -0.352,-0.967999 -0.997332,-1.613331 -0.616,-0.674666 -1.466665,-1.026666 -0.821333,-0.351999 -1.789332,-0.351999 -0.967998,0 -1.818664,0.351999 -0.821333,0.352 -1.466665,1.026666 -0.615999,0.645332 -0.967999,1.613331 -0.352,0.938666 -0.352,2.141336 0,1.20266 0.352,2.17066 0.352,0.93866 0.967999,1.61333 0.645332,0.64533 1.466665,0.99733 0.850666,0.352 1.818664,0.352 z"
       id="text2"
       style="font-size:29.3333px;font-family:Montserrat;-inkscape-font-specification:'Montserrat, @wght=900';font-variation-settings:'wght' 900;stroke:#145c0b;stroke-linecap:round;stroke-opacity:0"
       aria-label="O" /><path
       d="M 126.06118,110.72077 V 90.187462 h 9.59199 q 4.72266,0 7.18666,2.082664 2.464,2.082665 2.464,5.661327 0,2.375997 -1.144,4.106667 -1.144,1.70133 -3.256,2.61066 -2.08266,0.90933 -4.95733,0.90933 h -6.04266 l 3.08,-2.84533 v 8.00799 z m 12.29065,0 -5.04532,-7.47999 h 7.33332 l 5.104,7.47999 z m -5.36799,-7.24532 -3.08,-3.13867 h 5.60266 q 1.43734,0 2.112,-0.645329 0.704,-0.645332 0.704,-1.759998 0,-1.114665 -0.704,-1.759998 -0.67466,-0.645332 -2.112,-0.645332 h -5.60266 l 3.08,-3.138663 z"
       id="text3"
       style="font-size:29.3333px;font-family:Montserrat;-inkscape-font-specification:'Montserrat, @wght=900';font-variation-settings:'wght' 900;stroke:#145c0b;stroke-linecap:round;stroke-opacity:0"
       aria-label="R" /></g><!-- Diagonal outline around "SÕNA" --><!-- Letters --><g
     id="layer2"
     transform="translate(15.216248,33.3334)"><g
       id="g12"
       transform="matrix(-0.18265758,0,0,0.15819051,116.67236,-16.048908)"><circle
         style="opacity:0.5;fill:#27a2db;enable-background:new"
         cx="158.537"
         cy="158.536"
         id="ellipse1"
         r="129.77699" /><path
         style="opacity:0.5;fill:#ffffff;enable-background:new"
         d="M 98.081,234.62 C 54.765,191.305 54.199,121.641 96.817,79.025 c 9.509,-9.511 20.41,-16.745 32.021,-21.96 -16.497,4.812 -32.056,13.702 -45.064,26.71 -41.288,41.289 -41.289,108.231 0,149.521 18.282,18.281 41.596,28.431 65.483,30.523 C 130.561,258.986 112.79,249.33 98.081,234.62 Z"
         id="path1" /><path
         style="fill:#3a556a"
         d="m 270.636,46.433 c -61.912,-61.912 -162.291,-61.911 -224.202,10e-4 -61.911,61.912 -61.912,162.291 -10e-4,224.202 57.054,57.054 146.703,61.394 208.884,13.294 l 14.18,14.182 28.615,-28.613 -14.182,-14.182 c 48.099,-62.18 43.76,-151.83 -13.294,-208.884 z m -20.335,203.869 c -50.681,50.681 -132.852,50.681 -183.534,0 -50.68,-50.681 -50.68,-132.852 0.002,-183.533 50.682,-50.681 132.85,-50.681 183.531,0 50.682,50.681 50.682,132.852 10e-4,183.533 z"
         id="path2" /><path
         style="fill:#e56353"
         d="m 305.823,258.865 -46.959,46.958 c -2.669,2.67 -2.669,6.996 0,9.665 l 174.339,174.338 c 12.132,12.133 68.755,-44.49 56.623,-56.623 L 315.488,258.865 c -2.669,-2.669 -6.995,-2.669 -9.665,0 z"
         id="path3" /><g
         id="g4">
	
		<rect
   x="409.379"
   y="442.62799"
   transform="matrix(-0.7071,0.7071,-0.7071,-0.7071,1084.9951,449.4294)"
   style="fill:#ebf0f3"
   width="80.077003"
   height="13.594"
   id="rect3" />
	
		<rect
   x="260.67099"
   y="293.88901"
   transform="matrix(-0.7071,0.7071,-0.7071,-0.7071,725.9606,300.6683)"
   style="fill:#ebf0f3"
   width="80.077003"
   height="13.594"
   id="rect4" />
</g></g></g></svg>
