<?xml version="1.0" encoding="UTF-8" standalone="no"?>
<svg
   width="250"
   height="100"
   viewBox="0 0 250 100"
   version="1.1"
   id="svg21"
   xml:space="preserve"
   xmlns="http://www.w3.org/2000/svg"
   xmlns:svg="http://www.w3.org/2000/svg"><defs
     id="defs21"><clipPath
       clipPathUnits="userSpaceOnUse"
       id="clipPath8"><g
         id="use8" /></clipPath></defs><g
     font-family="Arial"
     font-size="30px"
     font-weight="bold"
     text-anchor="middle"
     dominant-baseline="middle"
     id="g21"
     transform="matrix(0.7442502,0,0,0.95058257,52.728468,-60.846323)"><!-- Diagonal word "SÕNA" with outline --><!-- Random letters --><rect
       style="font-variation-settings:'wght' 700;opacity:1;fill:#7ce362;fill-opacity:1;stroke-width:1.1252"
       id="rect21"
       width="272.6319"
       height="40.821419"
       x="-35.236214"
       y="88.178047"
       ry="20.410709"
       transform="matrix(0.99999994,3.5863685e-4,-0.00313839,0.99999508,0,0)"
       rx="23.272881" /><path
       style="font-variation-settings:'wght' 900;opacity:1;fill:#7ce362;fill-opacity:0;stroke:#145c0b;stroke-width:4.20098;stroke-linecap:round;stroke-dasharray:none;stroke-opacity:1"
       id="rect10"
       width="194.13193"
       height="29.866449"
       x="38.18182"
       y="146.23376"
       d="m 218.17796,129.57305 -235.745551,-0.15657 c -10.086613,-0.007 -18.212284,-8.11383 -18.218996,-18.17742 l -0.004,-5.44444 c -0.007,-10.063594 8.108145,-18.15991 18.194766,-18.153214 l 235.745541,0.156575 c 10.08661,0.0067 18.21229,8.113812 18.21901,18.177409 l 0.004,5.44444 c 0.007,10.06358 -8.10815,18.15993 -18.19477,18.15322 z"
       ry="12.987013" /></g><!-- Grid background --><!-- Grid lines --><g
     id="layer1"
     transform="translate(19.141239,-56.222052)"><path
       d="m 32.366127,111.51096 q -2.581331,0 -4.986661,-0.58667 -2.405331,-0.58666 -3.959996,-1.52533 l 2.229331,-5.04533 q 1.466665,0.85067 3.255996,1.37867 1.818665,0.49866 3.519996,0.49866 0.997333,0 1.554665,-0.11733 0.586666,-0.14667 0.850666,-0.38133 0.264,-0.264 0.264,-0.616 0,-0.55733 -0.616,-0.88 -0.615999,-0.32267 -1.642664,-0.528 -0.997333,-0.23467 -2.199998,-0.46933 -1.202665,-0.264 -2.434664,-0.67467 -1.202665,-0.41066 -2.22933,-1.08533 -0.997333,-0.67466 -1.613332,-1.759995 -0.615999,-1.114666 -0.615999,-2.75733 0,-1.906665 1.055999,-3.46133 1.085332,-1.583998 3.197329,-2.522664 2.141331,-0.938665 5.309327,-0.938665 2.082665,0 4.106662,0.439999 2.023998,0.44 3.63733,1.349332 l -2.082665,5.015994 q -1.525331,-0.762665 -2.962663,-1.143998 -1.407998,-0.381333 -2.75733,-0.381333 -0.997332,0 -1.583998,0.176 -0.586666,0.175999 -0.850666,0.469332 -0.234666,0.293333 -0.234666,0.645333 0,0.527999 0.615999,0.850666 0.615999,0.293333 1.613331,0.498666 1.026666,0.205333 2.229331,0.439999 1.231999,0.234667 2.434664,0.645333 1.202665,0.410666 2.199997,1.085331 1.026666,0.67467 1.642665,1.76 0.616,1.08533 0.616,2.69866 0,1.87733 -1.085333,3.46133 -1.055998,1.55466 -3.167996,2.52266 -2.111998,0.93867 -5.309327,0.93867 z"
       id="text6"
       style="font-size:29.3333px;font-family:Montserrat;-inkscape-font-specification:'Montserrat, @wght=900';font-variation-settings:'wght' 900"
       aria-label="S" /><path
       d="m 83.449812,112.1752 q -2.493331,0 -4.634662,-0.792 -2.111997,-0.79199 -3.666662,-2.22933 -1.554665,-1.46666 -2.434664,-3.43199 -0.850666,-1.96533 -0.850666,-4.28266 0,-2.346665 0.850666,-4.282663 0.879999,-1.965331 2.434664,-3.402662 1.554665,-1.466665 3.666662,-2.258664 2.141331,-0.792 4.634662,-0.792 2.522664,0 4.634661,0.792 2.111998,0.791999 3.666663,2.258664 1.554664,1.437331 2.40533,3.402662 0.879999,1.935998 0.879999,4.282663 0,2.31733 -0.879999,4.28266 -0.850666,1.96533 -2.40533,3.43199 -1.554665,1.43734 -3.666663,2.22933 -2.111997,0.792 -4.634661,0.792 z m 0,-5.60266 q 0.967999,0 1.789331,-0.352 0.850666,-0.352 1.466665,-0.99733 0.645333,-0.67466 0.997332,-1.61333 0.352,-0.968 0.352,-2.17066 0,-1.20267 -0.352,-2.141332 -0.351999,-0.967999 -0.997332,-1.613331 -0.615999,-0.674666 -1.466665,-1.026666 -0.821332,-0.351999 -1.789331,-0.351999 -0.967999,0 -1.818665,0.351999 -0.821332,0.352 -1.466665,1.026666 -0.615999,0.645332 -0.967999,1.613331 -0.351999,0.938662 -0.351999,2.141332 0,1.20266 0.351999,2.17066 0.352,0.93867 0.967999,1.61333 0.645333,0.64533 1.466665,0.99733 0.850666,0.352 1.818665,0.352 z m 2.375997,-16.778641 q -0.821332,0 -1.466665,-0.264 -0.615999,-0.263999 -1.143999,-0.586666 -0.498666,-0.351999 -0.909332,-0.615999 -0.410666,-0.264 -0.821332,-0.264 -0.557333,0 -0.909333,0.381333 -0.351999,0.381333 -0.410666,1.055999 h -3.138663 q 0.05867,-2.317331 1.114666,-3.695996 1.055998,-1.378665 2.93333,-1.378665 0.821332,0 1.437331,0.264 0.645333,0.264 1.143999,0.615999 0.527999,0.322667 0.938665,0.586666 0.44,0.264 0.821333,0.264 0.586666,0 0.938665,-0.352 0.352,-0.381333 0.381333,-0.997332 h 3.138663 q -0.02933,2.229331 -1.114665,3.607996 -1.055999,1.378665 -2.93333,1.378665 z"
       id="text7"
       style="font-size:29.3333px;font-family:Montserrat;-inkscape-font-specification:'Montserrat, @wght=900';font-variation-settings:'wght' 900"
       aria-label="Õ" /><path
       d="M 125.85622,110.80325 V 90.269938 h 5.69066 l 10.44265,12.495982 h -2.64 V 90.269938 h 6.74666 v 20.533312 h -5.69066 L 129.96288,98.307258 h 2.63999 v 12.495992 z"
       id="text8"
       style="font-size:29.3333px;font-family:Montserrat;-inkscape-font-specification:'Montserrat, @wght=900';font-variation-settings:'wght' 900"
       aria-label="N" /><path
       d="M 172.46751,110.60771 181.4435,90.0744 h 6.80532 l 8.97599,20.53331 h -7.15732 l -6.62933,-17.24798 h 2.69867 l -6.62933,17.24798 z m 5.33866,-3.57866 1.76,-4.98666 h 9.44532 l 1.76,4.98666 z"
       id="text9"
       style="font-size:29.3333px;font-family:Montserrat;-inkscape-font-specification:'Montserrat, @wght=900';font-variation-settings:'wght' 900"
       aria-label="A" /></g><!-- Diagonal outline around "SÕNA" --><!-- Letters --><g
     id="layer2"
     transform="translate(15.216248,33.3334)"><g
       id="g12"
       transform="matrix(-0.18265758,0,0,0.15819051,116.67236,-16.048908)"><circle
         style="opacity:0.5;fill:#27a2db;enable-background:new"
         cx="158.537"
         cy="158.536"
         id="ellipse1"
         r="129.77699" /><path
         style="opacity:0.5;fill:#ffffff;enable-background:new"
         d="M 98.081,234.62 C 54.765,191.305 54.199,121.641 96.817,79.025 c 9.509,-9.511 20.41,-16.745 32.021,-21.96 -16.497,4.812 -32.056,13.702 -45.064,26.71 -41.288,41.289 -41.289,108.231 0,149.521 18.282,18.281 41.596,28.431 65.483,30.523 C 130.561,258.986 112.79,249.33 98.081,234.62 Z"
         id="path1" /><path
         style="fill:#3a556a"
         d="m 270.636,46.433 c -61.912,-61.912 -162.291,-61.911 -224.202,10e-4 -61.911,61.912 -61.912,162.291 -10e-4,224.202 57.054,57.054 146.703,61.394 208.884,13.294 l 14.18,14.182 28.615,-28.613 -14.182,-14.182 c 48.099,-62.18 43.76,-151.83 -13.294,-208.884 z m -20.335,203.869 c -50.681,50.681 -132.852,50.681 -183.534,0 -50.68,-50.681 -50.68,-132.852 0.002,-183.533 50.682,-50.681 132.85,-50.681 183.531,0 50.682,50.681 50.682,132.852 10e-4,183.533 z"
         id="path2" /><path
         style="fill:#e56353"
         d="m 305.823,258.865 -46.959,46.958 c -2.669,2.67 -2.669,6.996 0,9.665 l 174.339,174.338 c 12.132,12.133 68.755,-44.49 56.623,-56.623 L 315.488,258.865 c -2.669,-2.669 -6.995,-2.669 -9.665,0 z"
         id="path3" /><g
         id="g4">
	
		<rect
   x="409.379"
   y="442.62799"
   transform="matrix(-0.7071,0.7071,-0.7071,-0.7071,1084.9951,449.4294)"
   style="fill:#ebf0f3"
   width="80.077003"
   height="13.594"
   id="rect3" />
	
		<rect
   x="260.67099"
   y="293.88901"
   transform="matrix(-0.7071,0.7071,-0.7071,-0.7071,725.9606,300.6683)"
   style="fill:#ebf0f3"
   width="80.077003"
   height="13.594"
   id="rect4" />
</g></g></g></svg>
