<?xml version="1.0" encoding="UTF-8" standalone="no"?>
<svg
   width="100"
   height="100"
   viewBox="0 0 100 100"
   version="1.1"
   id="svg21"
   xml:space="preserve"
   xmlns="http://www.w3.org/2000/svg"
   xmlns:svg="http://www.w3.org/2000/svg"><defs
     id="defs21"><clipPath
       clipPathUnits="userSpaceOnUse"
       id="clipPath8"><g
         id="use8" /></clipPath></defs><!-- Grid background --><!-- Grid lines --><!-- Diagonal outline around "SÕNA" --><!-- Letters --><g
     id="layer2"
     transform="translate(-22.260411,26.792662)"><g
       id="g12"
       transform="matrix(-0.18265758,0,0,0.15819051,116.67236,-16.048908)"><circle
         style="opacity:0.5;fill:#27a2db;enable-background:new"
         cx="158.537"
         cy="158.536"
         id="ellipse1"
         r="129.77699" /><path
         style="opacity:0.5;fill:#ffffff;enable-background:new"
         d="M 98.081,234.62 C 54.765,191.305 54.199,121.641 96.817,79.025 c 9.509,-9.511 20.41,-16.745 32.021,-21.96 -16.497,4.812 -32.056,13.702 -45.064,26.71 -41.288,41.289 -41.289,108.231 0,149.521 18.282,18.281 41.596,28.431 65.483,30.523 C 130.561,258.986 112.79,249.33 98.081,234.62 Z"
         id="path1" /><path
         style="fill:#3a556a"
         d="m 270.636,46.433 c -61.912,-61.912 -162.291,-61.911 -224.202,10e-4 -61.911,61.912 -61.912,162.291 -10e-4,224.202 57.054,57.054 146.703,61.394 208.884,13.294 l 14.18,14.182 28.615,-28.613 -14.182,-14.182 c 48.099,-62.18 43.76,-151.83 -13.294,-208.884 z m -20.335,203.869 c -50.681,50.681 -132.852,50.681 -183.534,0 -50.68,-50.681 -50.68,-132.852 0.002,-183.533 50.682,-50.681 132.85,-50.681 183.531,0 50.682,50.681 50.682,132.852 10e-4,183.533 z"
         id="path2" /><path
         style="fill:#e56353"
         d="m 305.823,258.865 -46.959,46.958 c -2.669,2.67 -2.669,6.996 0,9.665 l 174.339,174.338 c 12.132,12.133 68.755,-44.49 56.623,-56.623 L 315.488,258.865 c -2.669,-2.669 -6.995,-2.669 -9.665,0 z"
         id="path3" /><g
         id="g4">
	
		<rect
   x="409.379"
   y="442.62799"
   transform="matrix(-0.7071,0.7071,-0.7071,-0.7071,1084.9951,449.4294)"
   style="fill:#ebf0f3"
   width="80.077003"
   height="13.594"
   id="rect3" />
	
		<rect
   x="260.67099"
   y="293.88901"
   transform="matrix(-0.7071,0.7071,-0.7071,-0.7071,725.9606,300.6683)"
   style="fill:#ebf0f3"
   width="80.077003"
   height="13.594"
   id="rect4" />
</g></g></g></svg>
