<?xml version="1.0" encoding="UTF-8" standalone="no"?>
<svg
   width="500"
   height="500"
   viewBox="0 0 300 300"
   version="1.1"
   id="svg21"
   xml:space="preserve"
   xmlns="http://www.w3.org/2000/svg"
   xmlns:svg="http://www.w3.org/2000/svg"><defs
     id="defs21"><clipPath
       clipPathUnits="userSpaceOnUse"
       id="clipPath8"><g
         id="use8" /></clipPath></defs><rect
     style="font-variation-settings:'wght' 900;opacity:1;fill:#efd48e;fill-opacity:1;stroke:#145c0b;stroke-width:5.07618;stroke-linecap:round;stroke-dasharray:none;stroke-opacity:0"
     id="rect13"
     width="268.71268"
     height="148.10355"
     x="82.074348"
     y="-73.38163"
     ry="46.557301"
     transform="matrix(0.72129778,0.69262509,-0.72129778,0.69262509,0,0)" /><g
     stroke="#000000"
     stroke-width="2"
     id="g6"
     transform="translate(59.216248,49.083404)"><line
       x1="50"
       y1="8.7202244"
       x2="50"
       y2="109.46159"
       id="line1"
       style="stroke-width:3.36106;stroke-linecap:round;stroke-dasharray:none" /><line
       x1="100"
       y1="41.81818"
       x2="100"
       y2="158.18182"
       id="line2"
       style="stroke-width:3;stroke-linecap:round;stroke-dasharray:none" /><line
       x1="150"
       y1="91.302444"
       x2="150"
       y2="193.63261"
       id="line3"
       style="stroke-width:2.96253;stroke-linecap:round;stroke-dasharray:none" /><line
       x1="9.744154"
       y1="50"
       x2="112.28288"
       y2="50"
       id="line4"
       style="stroke-width:3.06664;stroke-linecap:round;stroke-dasharray:none" /><line
       x1="34.545456"
       y1="100"
       x2="161.81818"
       y2="100"
       id="line5"
       style="stroke-width:3.1445;stroke-linecap:round;stroke-dasharray:none" /><line
       x1="87.950287"
       y1="149.74026"
       x2="193.60814"
       y2="149.74026"
       id="line6"
       style="stroke-width:3.15412;stroke-linecap:round;stroke-dasharray:none" /></g><g
     font-family="Arial"
     font-size="30px"
     font-weight="bold"
     text-anchor="middle"
     dominant-baseline="middle"
     id="g21"
     transform="matrix(0.93940015,0,0,0.94154971,65.188339,47.384711)"><!-- Diagonal word "SÕNA" with outline --><!-- Random letters --><rect
       style="font-variation-settings:'wght' 700;opacity:1;fill:#7ce362;fill-opacity:1;stroke-width:1.12521"
       id="rect21"
       width="272.32175"
       height="40.868286"
       x="11.896914"
       y="-14.483774"
       ry="20.434143"
       transform="matrix(0.70889258,0.70531646,-0.70889258,0.70531646,0,0)"
       rx="23.246405" /><path
       style="font-variation-settings:'wght' 900;opacity:1;fill:#7ce362;fill-opacity:0;stroke:#145c0b;stroke-width:3;stroke-linecap:round;stroke-dasharray:none;stroke-opacity:1"
       id="rect10"
       width="194.13193"
       height="29.866449"
       x="38.18182"
       y="146.23376"
       transform="matrix(0.99065405,0.98970924,-0.99065405,0.98970924,125.96811,-184.7578)"
       d="M 51.168833,146.23376 H 219.32673 c 7.19481,0 12.98702,5.79221 12.98702,12.98702 v 3.89242 c 0,7.19481 -5.79221,12.98701 -12.98702,12.98701 H 51.168833 c -7.194805,0 -12.987013,-5.7922 -12.987013,-12.98701 v -3.89242 c 0,-7.19481 5.792208,-12.98702 12.987013,-12.98702 z"
       ry="12.987013" /></g><!-- Grid background --><!-- Grid lines --><g
     id="layer1"
     transform="translate(59.216248,49.083404)"><path
       d="m 124.0544,182.07704 q -2.40533,0 -4.34133,-0.76266 -1.936,-0.792 -3.22666,-2.288 l 3.72533,-4.39999 q 0.82133,0.99733 1.61333,1.52533 0.792,0.49866 1.64266,0.49866 2.22933,0 2.22933,-2.55199 v -7.80266 h -6.98132 v -5.22133 h 13.81598 v 12.61332 q 0,4.224 -2.17066,6.30666 -2.17067,2.08266 -6.30666,2.08266 z"
       id="text21"
       style="font-size:29.3333px;font-family:Montserrat;-inkscape-font-specification:'Montserrat, @wght=900';font-variation-settings:'wght' 900"
       aria-label="J" /><path
       d="m 27.06435,35.127078 q -2.581331,0 -4.986661,-0.586666 -2.405331,-0.586666 -3.959996,-1.525331 l 2.229331,-5.045328 q 1.466665,0.850666 3.255996,1.378665 1.818665,0.498666 3.519996,0.498666 0.997333,0 1.554665,-0.117333 0.586666,-0.146666 0.850666,-0.381333 0.264,-0.264 0.264,-0.615999 0,-0.557333 -0.616,-0.879999 -0.615999,-0.322666 -1.642664,-0.528 -0.997333,-0.234666 -2.199998,-0.469332 -1.202665,-0.264 -2.434664,-0.674666 -1.202665,-0.410666 -2.22933,-1.085332 -0.997333,-0.674666 -1.613332,-1.759998 -0.615999,-1.114666 -0.615999,-2.75733 0,-1.906665 1.055999,-3.46133 1.085332,-1.583998 3.197329,-2.522664 2.141331,-0.938665 5.309327,-0.938665 2.082665,0 4.106662,0.439999 2.023998,0.44 3.63733,1.349332 l -2.082665,5.015994 q -1.525331,-0.762665 -2.962663,-1.143998 -1.407998,-0.381333 -2.75733,-0.381333 -0.997332,0 -1.583998,0.176 -0.586666,0.175999 -0.850666,0.469332 -0.234666,0.293333 -0.234666,0.645333 0,0.527999 0.615999,0.850666 0.615999,0.293333 1.613331,0.498666 1.026666,0.205333 2.229331,0.439999 1.231999,0.234667 2.434664,0.645333 1.202665,0.410666 2.199997,1.085332 1.026666,0.674666 1.642665,1.759998 0.616,1.085332 0.616,2.698663 0,1.877332 -1.085333,3.46133 -1.055998,1.554665 -3.167996,2.522664 -2.111998,0.938665 -5.309327,0.938665 z"
       id="text6"
       style="font-size:29.3333px;font-family:Montserrat;-inkscape-font-specification:'Montserrat, @wght=900';font-variation-settings:'wght' 900"
       aria-label="S" /><path
       d="m 74.952414,87.791324 q -2.493331,0 -4.634662,-0.791999 -2.111997,-0.791999 -3.666662,-2.229331 -1.554665,-1.466665 -2.434664,-3.431996 -0.850666,-1.965331 -0.850666,-4.282662 0,-2.346664 0.850666,-4.282662 0.879999,-1.965331 2.434664,-3.402662 1.554665,-1.466665 3.666662,-2.258664 2.141331,-0.792 4.634662,-0.792 2.522664,0 4.634661,0.792 2.111998,0.791999 3.666663,2.258664 1.554664,1.437331 2.40533,3.402662 0.879999,1.935998 0.879999,4.282662 0,2.317331 -0.879999,4.282662 -0.850666,1.965331 -2.40533,3.431996 -1.554665,1.437332 -3.666663,2.229331 -2.111997,0.791999 -4.634661,0.791999 z m 0,-5.60266 q 0.967999,0 1.789331,-0.352 0.850666,-0.352 1.466665,-0.997332 0.645333,-0.674666 0.997332,-1.613332 0.352,-0.967999 0.352,-2.170664 0,-1.202665 -0.352,-2.141331 -0.351999,-0.967999 -0.997332,-1.613331 -0.615999,-0.674666 -1.466665,-1.026666 -0.821332,-0.351999 -1.789331,-0.351999 -0.967999,0 -1.818665,0.351999 -0.821332,0.352 -1.466665,1.026666 -0.615999,0.645332 -0.967999,1.613331 -0.351999,0.938666 -0.351999,2.141331 0,1.202665 0.351999,2.170664 0.352,0.938666 0.967999,1.613332 0.645333,0.645332 1.466665,0.997332 0.850666,0.352 1.818665,0.352 z m 2.375997,-16.778648 q -0.821332,0 -1.466665,-0.264 -0.615999,-0.263999 -1.143999,-0.586666 -0.498666,-0.351999 -0.909332,-0.615999 -0.410666,-0.264 -0.821332,-0.264 -0.557333,0 -0.909333,0.381333 -0.351999,0.381333 -0.410666,1.055999 h -3.138663 q 0.05867,-2.317331 1.114666,-3.695996 1.055998,-1.378665 2.93333,-1.378665 0.821332,0 1.437331,0.264 0.645333,0.264 1.143999,0.615999 0.527999,0.322667 0.938665,0.586666 0.44,0.264 0.821333,0.264 0.586666,0 0.938665,-0.352 0.352,-0.381333 0.381333,-0.997332 h 3.138663 q -0.02933,2.229331 -1.114665,3.607996 -1.055999,1.378665 -2.93333,1.378665 z"
       id="text7"
       style="font-size:29.3333px;font-family:Montserrat;-inkscape-font-specification:'Montserrat, @wght=900';font-variation-settings:'wght' 900"
       aria-label="Õ" /><path
       d="m 116.00527,134.46486 v -20.53331 h 5.69066 l 10.44265,12.49598 h -2.64 v -12.49598 h 6.74666 v 20.53331 h -5.69066 l -10.44265,-12.49599 h 2.63999 v 12.49599 z"
       id="text8"
       style="font-size:29.3333px;font-family:Montserrat;-inkscape-font-specification:'Montserrat, @wght=900';font-variation-settings:'wght' 900"
       aria-label="N" /><path
       d="m 162.21751,181.60771 8.97599,-20.53331 h 6.80532 l 8.97599,20.53331 h -7.15732 l -6.62933,-17.24798 h 2.69867 l -6.62933,17.24798 z m 5.33866,-3.57866 1.76,-4.98666 h 9.44532 l 1.76,4.98666 z"
       id="text9"
       style="font-size:29.3333px;font-family:Montserrat;-inkscape-font-specification:'Montserrat, @wght=900';font-variation-settings:'wght' 900"
       aria-label="A" /><path
       d="m 72.194599,30.06486 -0.381333,-7.597324 7.743991,-8.535991 h 7.538658 l -8.682656,9.562656 -3.842663,3.930662 z m -6.189326,4.399995 v -20.53331 h 6.805325 v 20.53331 z m 13.493318,0 -6.04266,-7.978657 4.487995,-4.751995 9.562656,12.730652 z"
       id="text10"
       style="font-size:29.3333px;font-family:Montserrat;-inkscape-font-specification:'Montserrat, @wght=900';font-variation-settings:'wght' 900"
       aria-label="K" /><path
       d="M 23.061339,84.464851 V 69.299535 h -6.013326 v -5.367993 h 18.949311 v 5.367993 h -6.013326 v 15.165316 z"
       id="text13"
       style="font-size:29.3333px;font-family:Montserrat;-inkscape-font-specification:'Montserrat, @wght=900';font-variation-settings:'wght' 900"
       aria-label="T" /><path
       d="m 125.83192,84.934184 q -4.72266,0 -7.36266,-2.551997 -2.63999,-2.551997 -2.63999,-7.157325 v -11.29332 h 6.92265 v 11.087987 q 0,2.346664 0.85067,3.343996 0.85067,0.967999 2.288,0.967999 1.46666,0 2.28799,-0.967999 0.85067,-0.997332 0.85067,-3.343996 V 63.931542 h 6.80533 v 11.29332 q 0,4.605328 -2.64,7.157325 -2.64,2.551997 -7.36266,2.551997 z"
       id="text14"
       style="font-size:29.3333px;font-family:Montserrat;-inkscape-font-specification:'Montserrat, @wght=900';font-variation-settings:'wght' 900"
       aria-label="U" /><path
       d="M 70.120937,133.94537 61.43828,113.41206 h 7.450659 l 7.069325,17.33598 h -4.429329 l 7.274659,-17.33598 h 6.805325 l -8.682656,20.53331 z"
       id="text17"
       style="font-size:29.3333px;font-family:Montserrat;-inkscape-font-specification:'Montserrat, @wght=900';font-variation-settings:'wght' 900"
       aria-label="V" /><path
       d="m 162.62866,133.94537 v -20.53331 h 9.59199 q 4.72266,0 7.18666,2.08267 2.464,2.08266 2.464,5.66132 0,2.376 -1.144,4.10667 -1.144,1.70133 -3.256,2.61066 -2.08266,0.90933 -4.95732,0.90933 h -6.04266 l 3.07999,-2.84533 v 8.00799 z m 12.29066,0 -5.04533,-7.47999 h 7.33332 l 5.104,7.47999 z m -5.368,-7.24532 -3.07999,-3.13866 h 5.60266 q 1.43733,0 2.11199,-0.64534 0.704,-0.64533 0.704,-1.76 0,-1.11466 -0.704,-1.75999 -0.67466,-0.64534 -2.11199,-0.64534 h -5.60266 l 3.07999,-3.13866 z"
       id="text18"
       style="font-size:29.3333px;font-family:Montserrat;-inkscape-font-specification:'Montserrat, @wght=900';font-variation-settings:'wght' 900"
       aria-label="R" /></g><!-- Diagonal outline around "SÕNA" --><!-- Letters --><g
     id="layer2"
     transform="translate(59.216248,49.083404)"><g
       id="g12"
       transform="matrix(-0.18265758,0,0,0.15819051,103.42236,49.201092)"><circle
         style="opacity:0.5;fill:#27a2db;enable-background:new"
         cx="158.537"
         cy="158.536"
         id="ellipse1"
         r="129.77699" /><path
         style="opacity:0.5;fill:#ffffff;enable-background:new"
         d="M 98.081,234.62 C 54.765,191.305 54.199,121.641 96.817,79.025 c 9.509,-9.511 20.41,-16.745 32.021,-21.96 -16.497,4.812 -32.056,13.702 -45.064,26.71 -41.288,41.289 -41.289,108.231 0,149.521 18.282,18.281 41.596,28.431 65.483,30.523 C 130.561,258.986 112.79,249.33 98.081,234.62 Z"
         id="path1" /><path
         style="fill:#3a556a"
         d="m 270.636,46.433 c -61.912,-61.912 -162.291,-61.911 -224.202,10e-4 -61.911,61.912 -61.912,162.291 -10e-4,224.202 57.054,57.054 146.703,61.394 208.884,13.294 l 14.18,14.182 28.615,-28.613 -14.182,-14.182 c 48.099,-62.18 43.76,-151.83 -13.294,-208.884 z m -20.335,203.869 c -50.681,50.681 -132.852,50.681 -183.534,0 -50.68,-50.681 -50.68,-132.852 0.002,-183.533 50.682,-50.681 132.85,-50.681 183.531,0 50.682,50.681 50.682,132.852 10e-4,183.533 z"
         id="path2" /><path
         style="fill:#e56353"
         d="m 305.823,258.865 -46.959,46.958 c -2.669,2.67 -2.669,6.996 0,9.665 l 174.339,174.338 c 12.132,12.133 68.755,-44.49 56.623,-56.623 L 315.488,258.865 c -2.669,-2.669 -6.995,-2.669 -9.665,0 z"
         id="path3" /><g
         id="g4">
	
		<rect
   x="409.379"
   y="442.62799"
   transform="matrix(-0.7071,0.7071,-0.7071,-0.7071,1084.9951,449.4294)"
   style="fill:#ebf0f3"
   width="80.077003"
   height="13.594"
   id="rect3" />
	
		<rect
   x="260.67099"
   y="293.88901"
   transform="matrix(-0.7071,0.7071,-0.7071,-0.7071,725.9606,300.6683)"
   style="fill:#ebf0f3"
   width="80.077003"
   height="13.594"
   id="rect4" />
</g></g></g></svg>
