<?xml version="1.0" encoding="UTF-8" standalone="no"?>
<svg
   width="300"
   height="300"
   viewBox="0 0 300 300"
   version="1.1"
   id="svg21"
   xml:space="preserve"
   xmlns="http://www.w3.org/2000/svg"
   xmlns:svg="http://www.w3.org/2000/svg"><defs
     id="defs21"><clipPath
       clipPathUnits="userSpaceOnUse"
       id="clipPath8"><g
         id="use8" /></clipPath></defs><rect
     style="font-variation-settings:'wght' 900;opacity:1;fill:#efd48e;fill-opacity:1;stroke:#145c0b;stroke-width:5.07618;stroke-linecap:round;stroke-dasharray:none;stroke-opacity:0"
     id="rect13"
     width="268.71268"
     height="148.10355"
     x="82.074348"
     y="-73.38163"
     ry="46.557301"
     transform="matrix(0.72129778,0.69262509,-0.72129778,0.69262509,0,0)" /><g
     stroke="#000000"
     stroke-width="2"
     id="g6"
     transform="translate(59.216248,49.083404)"><line
       x1="50"
       y1="8.7202244"
       x2="50"
       y2="109.46159"
       id="line1"
       style="stroke-width:3.36106;stroke-linecap:round;stroke-dasharray:none" /><line
       x1="100"
       y1="41.81818"
       x2="100"
       y2="158.18182"
       id="line2"
       style="stroke-width:3;stroke-linecap:round;stroke-dasharray:none" /><line
       x1="150"
       y1="91.302444"
       x2="150"
       y2="193.63261"
       id="line3"
       style="stroke-width:2.96253;stroke-linecap:round;stroke-dasharray:none" /><line
       x1="9.744154"
       y1="50"
       x2="112.28288"
       y2="50"
       id="line4"
       style="stroke-width:3.06664;stroke-linecap:round;stroke-dasharray:none" /><line
       x1="34.545456"
       y1="100"
       x2="161.81818"
       y2="100"
       id="line5"
       style="stroke-width:3.1445;stroke-linecap:round;stroke-dasharray:none" /><line
       x1="87.950287"
       y1="149.74026"
       x2="193.60814"
       y2="149.74026"
       id="line6"
       style="stroke-width:3.15412;stroke-linecap:round;stroke-dasharray:none" /><path
       d="m 124.0544,182.07704 q -2.40533,0 -4.34133,-0.76266 -1.936,-0.792 -3.22666,-2.288 l 3.72533,-4.39999 q 0.82133,0.99733 1.61333,1.52533 0.792,0.49866 1.64266,0.49866 2.22933,0 2.22933,-2.55199 v -7.80266 h -6.98132 v -5.22133 h 13.81598 v 12.61332 q 0,4.224 -2.17066,6.30666 -2.17067,2.08266 -6.30666,2.08266 z"
       id="text21"
       style="font-size:29.3333px;font-family:Montserrat;-inkscape-font-specification:'Montserrat, @wght=900';font-variation-settings:'wght' 900;stroke-width:1;stroke-dasharray:none"
       aria-label="J" /><path
       d="m 72.194599,30.06486 -0.381333,-7.597324 7.743991,-8.535991 h 7.538658 l -8.682656,9.562656 -3.842663,3.930662 z m -6.189326,4.399995 v -20.53331 h 6.805325 v 20.53331 z m 13.493318,0 -6.04266,-7.978657 4.487995,-4.751995 9.562656,12.730652 z"
       id="text10"
       style="font-size:29.3333px;font-family:Montserrat;-inkscape-font-specification:'Montserrat, @wght=900';font-variation-settings:'wght' 900;stroke-width:1;stroke-dasharray:none"
       aria-label="K" /><path
       d="M 23.061339,84.464851 V 69.299535 h -6.013326 v -5.367993 h 18.949311 v 5.367993 h -6.013326 v 15.165316 z"
       id="text13"
       style="font-size:29.3333px;font-family:Montserrat;-inkscape-font-specification:'Montserrat, @wght=900';font-variation-settings:'wght' 900;stroke-width:1;stroke-dasharray:none"
       aria-label="T" /><path
       d="m 125.83192,84.934184 q -4.72266,0 -7.36266,-2.551997 -2.63999,-2.551997 -2.63999,-7.157325 v -11.29332 h 6.92265 v 11.087987 q 0,2.346664 0.85067,3.343996 0.85067,0.967999 2.288,0.967999 1.46666,0 2.28799,-0.967999 0.85067,-0.997332 0.85067,-3.343996 V 63.931542 h 6.80533 v 11.29332 q 0,4.605328 -2.64,7.157325 -2.64,2.551997 -7.36266,2.551997 z"
       id="text14"
       style="font-size:29.3333px;font-family:Montserrat;-inkscape-font-specification:'Montserrat, @wght=900';font-variation-settings:'wght' 900;stroke-width:1;stroke-dasharray:none"
       aria-label="U" /><path
       d="M 70.120937,133.94537 61.43828,113.41206 h 7.450659 l 7.069325,17.33598 h -4.429329 l 7.274659,-17.33598 h 6.805325 l -8.682656,20.53331 z"
       id="text17"
       style="font-size:29.3333px;font-family:Montserrat;-inkscape-font-specification:'Montserrat, @wght=900';font-variation-settings:'wght' 900;stroke-width:1;stroke-dasharray:none"
       aria-label="V" /><path
       d="m 162.62866,133.94537 v -20.53331 h 9.59199 q 4.72266,0 7.18666,2.08267 2.464,2.08266 2.464,5.66132 0,2.376 -1.144,4.10667 -1.144,1.70133 -3.256,2.61066 -2.08266,0.90933 -4.95732,0.90933 h -6.04266 l 3.07999,-2.84533 v 8.00799 z m 12.29066,0 -5.04533,-7.47999 h 7.33332 l 5.104,7.47999 z m -5.368,-7.24532 -3.07999,-3.13866 h 5.60266 q 1.43733,0 2.11199,-0.64534 0.704,-0.64533 0.704,-1.76 0,-1.11466 -0.704,-1.75999 -0.67466,-0.64534 -2.11199,-0.64534 h -5.60266 l 3.07999,-3.13866 z"
       id="text18"
       style="font-size:29.3333px;font-family:Montserrat;-inkscape-font-specification:'Montserrat, @wght=900';font-variation-settings:'wght' 900;stroke-width:1;stroke-dasharray:none"
       aria-label="R" /></g><g
     font-family="Arial"
     font-size="30px"
     font-weight="bold"
     text-anchor="middle"
     dominant-baseline="middle"
     id="g21"
     transform="matrix(0.93940015,0,0,0.94154971,65.188339,47.384711)"><!-- Diagonal word "SÕNA" with outline --><!-- Random letters --><rect
       style="font-variation-settings:'wght' 700;opacity:1;fill:#7ce362;fill-opacity:1;stroke-width:1.12521"
       id="rect21"
       width="272.32175"
       height="40.868286"
       x="11.896914"
       y="-14.483774"
       ry="20.434143"
       transform="matrix(0.70889258,0.70531646,-0.70889258,0.70531646,0,0)"
       rx="23.246405" /><path
       style="font-variation-settings:'wght' 900;opacity:1;fill:#7ce362;fill-opacity:0;stroke:#145c0b;stroke-width:3;stroke-linecap:round;stroke-dasharray:none;stroke-opacity:1"
       id="rect10"
       width="194.13193"
       height="29.866449"
       x="38.18182"
       y="146.23376"
       transform="matrix(0.99065405,0.98970924,-0.99065405,0.98970924,125.96811,-184.7578)"
       d="M 51.168833,146.23376 H 219.32673 c 7.19481,0 12.98702,5.79221 12.98702,12.98702 v 3.89242 c 0,7.19481 -5.79221,12.98701 -12.98702,12.98701 H 51.168833 c -7.194805,0 -12.987013,-5.7922 -12.987013,-12.98701 v -3.89242 c 0,-7.19481 5.792208,-12.98702 12.987013,-12.98702 z"
       ry="12.987013" /></g><!-- Grid background --><!-- Grid lines --><g
     id="layer1"
     transform="translate(59.216248,49.083404)"><path
       d="M 16.375525,34.434692 10.18244,15.081303 h 6.718391 l 5.004233,16.33979 h -3.373019 l 5.308358,-16.33979 h 5.999551 l 4.948938,16.33979 h -3.23478 l 5.225415,-16.33979 h 6.193084 L 36.779527,34.434692 H 29.784659 L 25.748095,21.053206 h 1.880043 l -4.257745,13.381486 z"
       id="text1"
       style="font-size:27.6477px;font-family:Montserrat;-inkscape-font-specification:'Montserrat, @wght=900';font-variation-settings:'wght' 900;stroke:#145c0b;stroke-width:0.942537;stroke-linecap:round;stroke-opacity:0"
       transform="scale(0.97648021,1.0240863)"
       aria-label="W" /><path
       d="m 74.814894,85.062022 q -2.493331,0 -4.634661,-0.791999 -2.111998,-0.791999 -3.666663,-2.229331 -1.554665,-1.466665 -2.434664,-3.431996 -0.850665,-1.965331 -0.850665,-4.282661 0,-2.346664 0.850665,-4.282662 0.879999,-1.965331 2.434664,-3.402663 1.554665,-1.466665 3.666663,-2.258664 2.14133,-0.791999 4.634661,-0.791999 2.522664,0 4.634661,0.791999 2.111998,0.791999 3.666663,2.258664 1.554665,1.437332 2.40533,3.402663 0.879999,1.935998 0.879999,4.282662 0,2.31733 -0.879999,4.282661 -0.850665,1.965331 -2.40533,3.431996 -1.554665,1.437332 -3.666663,2.229331 -2.111997,0.791999 -4.634661,0.791999 z m 0,-5.60266 q 0.967999,0 1.789331,-0.352 0.850666,-0.351999 1.466665,-0.997332 0.645333,-0.674666 0.997332,-1.613331 0.352,-0.967999 0.352,-2.170664 0,-1.202666 -0.352,-2.141331 -0.351999,-0.967999 -0.997332,-1.613332 -0.615999,-0.674666 -1.466665,-1.026665 -0.821332,-0.352 -1.789331,-0.352 -0.967999,0 -1.818665,0.352 -0.821332,0.351999 -1.466665,1.026665 -0.615999,0.645333 -0.967998,1.613332 -0.352,0.938665 -0.352,2.141331 0,1.202665 0.352,2.170664 0.351999,0.938665 0.967998,1.613331 0.645333,0.645333 1.466665,0.997332 0.850666,0.352 1.818665,0.352 z"
       id="text2"
       style="font-size:29.3333px;font-family:Montserrat;-inkscape-font-specification:'Montserrat, @wght=900';font-variation-settings:'wght' 900;stroke:#145c0b;stroke-linecap:round;stroke-opacity:0"
       aria-label="O" /><path
       d="m 117.00589,134.20709 v -20.53331 h 9.59199 q 4.72266,0 7.18666,2.08267 2.464,2.08266 2.464,5.66132 0,2.376 -1.144,4.10667 -1.144,1.70133 -3.256,2.61066 -2.08266,0.90933 -4.95733,0.90933 h -6.04266 l 3.08,-2.84533 v 8.00799 z m 12.29065,0 -5.04532,-7.47999 h 7.33332 l 5.10399,7.47999 z m -5.36799,-7.24532 -3.08,-3.13867 h 5.60266 q 1.43734,0 2.112,-0.64533 0.704,-0.64533 0.704,-1.76 0,-1.11466 -0.704,-1.75999 -0.67466,-0.64534 -2.112,-0.64534 h -5.60266 l 3.08,-3.13866 z"
       id="text3"
       style="font-size:29.3333px;font-family:Montserrat;-inkscape-font-specification:'Montserrat, @wght=900';font-variation-settings:'wght' 900;stroke:#145c0b;stroke-linecap:round;stroke-opacity:0"
       aria-label="R" /><path
       d="m 164.04959,182.27907 v -20.53331 h 10.11999 q 3.432,0 6.04266,1.26133 2.61066,1.232 4.07733,3.52 1.46666,2.28799 1.46666,5.48532 0,3.168 -1.46666,5.48533 -1.46667,2.288 -4.07733,3.54933 -2.61066,1.232 -6.04266,1.232 z m 6.92266,-5.39733 h 2.904 q 1.46666,0 2.55199,-0.55733 1.11467,-0.55733 1.73067,-1.64267 0.616,-1.11466 0.616,-2.66933 0,-1.584 -0.616,-2.66933 -0.616,-1.08533 -1.73067,-1.64266 -1.08533,-0.55733 -2.55199,-0.55733 h -2.904 z"
       id="text4"
       style="font-size:29.3333px;font-family:Montserrat;-inkscape-font-specification:'Montserrat, @wght=900';font-variation-settings:'wght' 900;stroke:#145c0b;stroke-linecap:round;stroke-opacity:0"
       aria-label="D" /></g><!-- Diagonal outline around "SÕNA" --><!-- Letters --><g
     id="layer2"
     transform="translate(59.216248,49.083404)"><g
       id="g12"
       transform="matrix(-0.18265758,0,0,0.15819051,103.42236,49.201092)"><circle
         style="opacity:0.5;fill:#27a2db;enable-background:new"
         cx="158.537"
         cy="158.536"
         id="ellipse1"
         r="129.77699" /><path
         style="opacity:0.5;fill:#ffffff;enable-background:new"
         d="M 98.081,234.62 C 54.765,191.305 54.199,121.641 96.817,79.025 c 9.509,-9.511 20.41,-16.745 32.021,-21.96 -16.497,4.812 -32.056,13.702 -45.064,26.71 -41.288,41.289 -41.289,108.231 0,149.521 18.282,18.281 41.596,28.431 65.483,30.523 C 130.561,258.986 112.79,249.33 98.081,234.62 Z"
         id="path1" /><path
         style="fill:#3a556a"
         d="m 270.636,46.433 c -61.912,-61.912 -162.291,-61.911 -224.202,10e-4 -61.911,61.912 -61.912,162.291 -10e-4,224.202 57.054,57.054 146.703,61.394 208.884,13.294 l 14.18,14.182 28.615,-28.613 -14.182,-14.182 c 48.099,-62.18 43.76,-151.83 -13.294,-208.884 z m -20.335,203.869 c -50.681,50.681 -132.852,50.681 -183.534,0 -50.68,-50.681 -50.68,-132.852 0.002,-183.533 50.682,-50.681 132.85,-50.681 183.531,0 50.682,50.681 50.682,132.852 10e-4,183.533 z"
         id="path2" /><path
         style="fill:#e56353"
         d="m 305.823,258.865 -46.959,46.958 c -2.669,2.67 -2.669,6.996 0,9.665 l 174.339,174.338 c 12.132,12.133 68.755,-44.49 56.623,-56.623 L 315.488,258.865 c -2.669,-2.669 -6.995,-2.669 -9.665,0 z"
         id="path3" /><g
         id="g4">
	
		<rect
   x="409.379"
   y="442.62799"
   transform="matrix(-0.7071,0.7071,-0.7071,-0.7071,1084.9951,449.4294)"
   style="fill:#ebf0f3"
   width="80.077003"
   height="13.594"
   id="rect3" />
	
		<rect
   x="260.67099"
   y="293.88901"
   transform="matrix(-0.7071,0.7071,-0.7071,-0.7071,725.9606,300.6683)"
   style="fill:#ebf0f3"
   width="80.077003"
   height="13.594"
   id="rect4" />
</g></g></g></svg>
